<?xml version="1.0" encoding="utf-8"?>
<!-- Generator: Adobe Illustrator 22.0.1, SVG Export Plug-In . SVG Version: 6.00 Build 0)  -->
<svg version="1.1" xmlns="http://www.w3.org/2000/svg" xmlns:xlink="http://www.w3.org/1999/xlink" x="0px" y="0px"
	 viewBox="0 0 475.1 475.1" style="enable-background:new 0 0 475.1 475.1;" xml:space="preserve">
<style type="text/css">
	.st0{fill:#42661B;stroke:#8AAA26;stroke-width:5;stroke-miterlimit:10;}
	.st1{fill:#8AAA26;}
</style>
<g id="Capa_1">
</g>
<g id="Capa_2">
	<path class="st0" d="M83.9,394.2c-0.4-1.3,0-2.9,1.5-4.8c2.4-3.1,6.1-4.6,8.8-7.3c4-3.9,3.4-6.5,3.7-11.8
		c0.5-10.8,5-19.9,12.7-27.3c3.8-3.7,8.8-6.2,11.1-10.9c3.7-7.9,2.3-16.8,3.6-25.2c7.7-49.2,11.4-98.8,16.8-148.3
		c0.9-8.3,5.6-15.5,12.8-19.8c21-12.3,42.7-23.6,63.7-36c0,0,8.3-1.6,11.8-1.1c3.5,0.4-1.2-2.2-1.2-2.2s-5.8-1.6-9.2-4.6
		c-6.1-5.5-8.5-13.2-10.2-21c-0.9-4.4-4.2-14-2.5-18.5c0,0,2-5.2,8.3-4.9c6.3,0.3,13.2,0.7,13.2,0.7s1.8-0.9,2.8-1.6
		c1-0.7,3.7-1,4.7,1.3s6,8.3,6,8.3s4.5,4.6,5.2,6.3c0.7,1.7,0,3.7,0,3.7l3.3-0.1c0,0-0.2-2.3,1.7-5.2c1.8-2.9,4.3-10.6,5.8-10.6
		s3.7-1.9,7.2-2c3.5-0.1,14.2-2.2,14.2-2.2s3.7-1.8,5.5-0.9s4,7.9,4,7.9s5.2,8.6,5.8,10.5c0.7,1.9,2.2,6.2,2.2,6.2s4.3-2.2,5.8-1.7
		c1.5,0.4,3.5,6.5,3.5,6.5V84c-6,3.9-7.2,5.6-7.2,5.6s-1.8,1.1-1,1.9c0.7,0.8,2.9,2.1,2.9,2.1s3.3,1,3.1,2.2c-0.2,1.2,1.5,3.3-0.3,5
		c-1.8,1.7-4.3,5.1-4.3,5.1s-0.7,0.7,0.5,1.2s5,0.6,5,0.6c8.8,2.1,19.9,3.5,26,10.7c3,3.6,6.5,7.8,10.2,11.2
		c4.2,3.9,10.1,5.9,12,11.8c3.6,10.8,1.4,24.2,1.6,35.4c0.1,6.4-2.3,18.9,0.3,24.9c2.2,5.1,5.2,10.3,6.6,15.7
		c2.7,10.3,0.6,22.9,0.6,33.6c0,10.6,0,21.3,0,31.9c0,12.8,0,25.6,0,38.4c0,0,15.6,20.7,20.1,49.1c4.4,27.9,7.4,39.6,7.5,40
		c0.8,3.1,2.5,14.9-1.3,16.3c-1.2,0.4-2.4,0.3-3.7,0.1c-21.5-2.8-43.3-4.3-65-3.1c-40.8,2.2-82.1,0.4-122.9,0.1
		c-13-0.1-22.9,4.4-36.5,2c-13.1-2.3-27.5-5.7-39.1-12.4c-7.1-4.1-14.6-7.7-22.1-11C95.1,400.4,85.1,398.7,83.9,394.2z"/>
	<path class="st1" d="M178.6,228c-1.9-23.9,3.3-48,12.8-70c2.8,9.3,5.8,18.7,12,26.4c11.2,14.2,25.7,25.2,38.5,37.7
		c6.3,6.1,11.5,13.7,12.8,22.6c-0.3,14.5-4,30-10.1,41.5c-21.5-17.4-30.9-47.1-43.9-70.7c4.5,23.5,17.8,44.4,32.3,63
		c8.7,10.4,17.7,20.7,29,28.3c2.2-7.9,4.9-16.2,2-24.3c-4.1-13.5-4.4-29.2,3.8-41.3c11.8-17.6,22-26.3,42-31.4
		c1.3,7.3,1.3,15,1.3,23c0.1,15.4-0.5,26.1-6.3,39.2c-5.4,11.4-19.3,16-31.4,17.3c2-27.5,11.1-33.1,20.1-51
		c-17.6,19.9-21.1,32.6-26.3,71.1c0,0.2,12.7,8,12.5,8.2c-1,0.7-8.9-0.7-8.9,0.8c-15.8-3.7-25.8-24.1-39.8-29.3
		c-9.7-3.7-19.8-6.9-27.9-13.5C188.2,264.3,180.1,246.1,178.6,228z"/>
	<path class="st1" d="M179.8,293.6c0,0,33.9,16.7,52.1,21.1c17.6,4.3,50.6,4.4,63.4-0.2c11.9-4.3,33-14,36-14.2
		c3-0.3-4.9,2.1-1.9,7.1c3,5-26,13-26,13s-24.9,9.6-51.8,5.2c-12.8-2.1-24.5-3.2-32.9-4.9c-19.1-3.9-28.4-7.1-38.9-4s-13-2.7-13-2.7
		s9.7-0.2,14.2-2.5s-8.2-15.2-8.2-15.2s-4.5-7.3-6-10c-1.5-2.7,3.5-3.2,3.5-3.2s0.4,4.1,4.9,7.3
		C179.8,293.6,179.8,293.6,179.8,293.6z"/>
</g>
</svg>
